#N canvas 833 208 866 391 10;
#X declare -lib mrpeach;
#X obj 36 10 import mrpeach;
#X obj 117 89 udpreceive 8000;
#X floatatom 74 260 5 0 0 0 - - -;
#X obj 118 133 unpackOSC;
#X obj 95 485 dac~;
#X obj 663 325 *~;
#X floatatom 249 250 5 0 0 0 - - -;
#X obj 676 374 osc~;
#X obj 689 514 /~ 2;
#X floatatom 330 261 5 0 0 0 - - -;
#X floatatom 174 247 5 0 0 0 - - -;
#X obj 703 634 dac~;
#X obj 90 367 osc~;
#X obj 682 479 sin~;
#X obj 677 414 *~ 1;
#X obj 676 446 *~ 10;
#X obj 118 173 routeOSC /temperatureWave /highTemperature /temperatureMean
/waveData;
#X obj 483 532 lop~;
#X obj 450 464 *~ 22.5;
#X obj 451 501 +~ 100;
#X obj 501 178 route /co2Wave /co2Mean /seaLevelWave /seaLevelMean
;
#X obj 949 214 route /precipitationWave /precipitationMean /humidityWave
/humidityMean /windSpeedWave /windSpeedMean;
#X floatatom 492 250 5 0 0 0 - - -;
#X floatatom 569 258 5 0 0 0 - - -;
#X floatatom 642 265 5 0 0 0 - - -;
#X floatatom 709 259 5 0 0 0 - - -;
#X floatatom 940 302 5 0 0 0 - - -;
#X floatatom 1001 303 5 0 0 0 - - -;
#X floatatom 1061 309 5 0 0 0 - - -;
#X floatatom 1119 313 5 0 0 0 - - -;
#X floatatom 1168 315 5 0 0 0 - - -;
#X floatatom 1218 313 5 0 0 0 - - -;
#X obj 459 434 *~ 10;
#X obj 84 293 * 10;
#X obj 84 330 line~;
#X obj 94 415 *~;
#X obj 150 286 vsl 15 128 0 1 0 0 empty empty empty 0 -9 0 10 -262144
-1 -1 0 1;
#X obj 453 318 osc~;
#X obj 451 356 *~;
#X obj 522 396 dac~;
#X obj 539 268 vsl 15 128 0 1 0 0 empty empty empty 0 -9 0 10 -262144
-1 -1 0 1;
#X obj 693 563 *~;
#X obj 744 449 vsl 15 128 0 1 0 0 empty empty empty 0 -9 0 10 -262144
-1 -1 0 1;
#X obj 863 533 dac~;
#X obj 840 293 noise~;
#X obj 832 464 *~;
#X obj 930 365 vsl 15 128 0 1 0 0 empty empty empty 0 -9 0 10 -262144
-1 -1 0 1;
#X obj 834 366 bp~ 1000 5;
#X obj 878 494 *~;
#X obj 224 351 noise~;
#X obj 330 353 noise~;
#X obj 326 441 *~;
#X obj 266 492 *~;
#X obj 282 564 dac~;
#X obj 288 539 *~;
#X obj 325 482 *~ 30;
#X obj 232 404 hip~ 1000;
#X obj 329 402 lop~ 100;
#X obj 272 303 * 0.1;
#X obj 1180 394 freeverb~;
#X obj 1179 441 osc~ 440;
#X obj 1189 586 dac~;
#X obj 1188 523 freeverb~;
#X obj 1195 481 *~;
#X obj 1214 559 *~;
#X obj 1266 423 vsl 15 128 0 1 0 0 empty empty empty 0 -9 0 10 -262144
-1 -1 0 1;
#X obj 1177 361 * 10;
#X connect 1 0 3 0;
#X connect 2 0 33 0;
#X connect 3 0 16 0;
#X connect 5 0 7 0;
#X connect 7 0 14 0;
#X connect 8 0 41 0;
#X connect 9 0 37 1;
#X connect 10 0 58 0;
#X connect 12 0 35 0;
#X connect 13 0 8 0;
#X connect 14 0 15 0;
#X connect 15 0 13 0;
#X connect 16 0 2 0;
#X connect 16 1 10 0;
#X connect 16 2 6 0;
#X connect 16 3 9 0;
#X connect 16 4 20 0;
#X connect 18 0 19 0;
#X connect 19 0 17 0;
#X connect 20 0 22 0;
#X connect 20 1 23 0;
#X connect 20 2 24 0;
#X connect 20 3 25 0;
#X connect 20 4 21 0;
#X connect 21 0 26 0;
#X connect 21 1 27 0;
#X connect 21 2 28 0;
#X connect 21 3 29 0;
#X connect 21 4 30 0;
#X connect 21 5 31 0;
#X connect 22 0 37 0;
#X connect 24 0 5 0;
#X connect 26 0 45 1;
#X connect 30 0 66 0;
#X connect 32 0 18 0;
#X connect 33 0 34 0;
#X connect 34 0 12 0;
#X connect 35 0 4 0;
#X connect 35 0 4 1;
#X connect 36 0 35 1;
#X connect 37 0 38 0;
#X connect 38 0 39 0;
#X connect 38 0 39 1;
#X connect 40 0 38 1;
#X connect 41 0 11 0;
#X connect 41 0 11 1;
#X connect 42 0 41 1;
#X connect 44 0 47 0;
#X connect 45 0 48 0;
#X connect 46 0 48 1;
#X connect 47 0 45 0;
#X connect 48 0 43 0;
#X connect 48 0 43 1;
#X connect 49 0 56 0;
#X connect 50 0 57 0;
#X connect 51 0 55 0;
#X connect 54 0 53 0;
#X connect 54 0 53 1;
#X connect 55 0 52 1;
#X connect 56 0 52 0;
#X connect 57 0 51 0;
#X connect 57 0 51 1;
#X connect 58 0 54 1;
#X connect 59 0 60 0;
#X connect 60 0 63 0;
#X connect 62 0 64 0;
#X connect 63 0 62 0;
#X connect 64 0 61 0;
#X connect 64 0 61 1;
#X connect 65 0 64 1;
#X connect 66 0 59 0;
